<?xml version="1.0" standalone="no"?>
<!DOCTYPE svg PUBLIC "-//W3C//DTD SVG 20010904//EN"
 "http://www.w3.org/TR/2001/REC-SVG-20010904/DTD/svg10.dtd">
<svg version="1.0" xmlns="http://www.w3.org/2000/svg"
 width="300.000000pt" height="194.000000pt" viewBox="0 0 300.000000 194.000000"
 preserveAspectRatio="xMidYMid meet">

<g transform="translate(0.000000,194.000000) scale(0.100000,-0.100000)"
fill="#000000" stroke="none">
<path d="M940 1934 c-121 -7 -344 -35 -488 -59 -162 -28 -424 -84 -440 -94 -8
-5 13 -271 69 -881 44 -481 82 -876 84 -879 3 -2 62 8 132 23 224 47 389 67
593 73 231 7 342 -3 682 -57 494 -80 711 -77 1128 16 63 14 116 27 117 28 2 2
41 391 88 867 46 475 87 886 90 912 l6 49 -28 -6 c-50 -10 -194 -25 -363 -37
-200 -14 -495 -7 -855 21 -248 20 -677 32 -815 24z m815 -45 c346 -30 802 -32
1048 -5 93 10 170 16 171 15 2 -2 -36 -402 -85 -888 -58 -592 -91 -886 -99
-891 -17 -10 -298 -67 -390 -79 -252 -32 -471 -22 -836 39 -315 53 -448 64
-678 57 -201 -6 -382 -29 -580 -72 -65 -14 -121 -23 -123 -21 -8 8 -161 1711
-155 1718 10 9 303 73 447 97 122 20 351 48 460 55 140 9 577 -4 820 -25z"/>
<path d="M795 1804 c-181 -24 -404 -82 -585 -151 -72 -28 -75 -30 -72 -59 11
-104 199 -1435 204 -1439 2 -3 52 17 109 44 228 109 398 146 637 138 173 -6
228 -16 462 -84 361 -106 463 -126 635 -126 132 0 208 11 331 49 66 19 83 28
87 46 3 13 56 304 117 648 61 344 122 686 135 760 13 73 23 135 22 137 -2 1
-27 -4 -57 -12 -205 -53 -544 -78 -765 -56 -66 7 -239 32 -385 56 -146 24
-309 49 -362 54 -130 15 -390 12 -513 -5z m-55 -544 l0 -109 36 24 c62 42 142
26 195 -38 51 -61 64 -219 24 -297 -61 -121 -190 -162 -287 -90 l-29 21 -34
-25 c-18 -14 -43 -26 -54 -26 -21 0 -21 3 -21 294 0 254 -2 297 -16 310 -8 9
-20 16 -25 16 -5 0 -9 7 -9 15 0 12 19 15 110 15 l110 0 0 -110z m908 -187 l2
-292 25 -19 c14 -11 25 -23 25 -26 0 -3 -63 -6 -140 -6 -77 0 -140 2 -140 5 0
3 12 17 28 30 l27 23 3 229 c3 254 -2 303 -36 318 -12 5 -22 16 -22 23 0 10
26 12 113 10 l112 -3 3 -292z m282 7 l0 -291 25 -23 c14 -13 25 -26 25 -30 0
-3 -61 -6 -135 -6 -74 0 -135 3 -135 6 0 4 11 17 25 30 l25 23 0 260 0 260
-25 19 c-45 36 -32 42 85 42 l110 0 0 -290z m-603 105 c68 -29 105 -81 118
-168 l7 -47 -127 0 -127 0 7 -32 c16 -72 65 -128 112 -128 32 0 80 26 93 50
13 24 28 26 36 5 9 -24 -44 -93 -94 -122 -84 -49 -202 -28 -265 47 -29 34 -57
116 -57 165 0 165 158 288 297 230z m991 -10 c53 -31 62 -65 62 -223 0 -146 4
-160 43 -154 23 4 22 -21 -2 -42 -55 -50 -137 -49 -177 0 l-22 27 -37 -28
c-46 -36 -131 -46 -169 -22 -28 19 -51 78 -42 111 14 57 78 107 184 146 l62
23 0 54 c0 69 -13 93 -48 93 -47 0 -58 -14 -44 -53 7 -18 12 -41 12 -50 0 -27
-37 -57 -71 -57 -41 0 -64 14 -78 48 -25 59 23 119 114 143 53 14 178 4 213
-16z"/>
<path d="M758 1119 c-16 -9 -18 -28 -18 -165 0 -88 4 -164 10 -175 14 -24 42
-24 64 0 23 25 39 140 30 221 -12 115 -36 149 -86 119z"/>
<path d="M1225 1136 c-9 -13 -18 -47 -22 -75 l-6 -51 52 0 51 0 0 45 c0 52
-23 105 -45 105 -8 0 -22 -11 -30 -24z"/>
<path d="M2177 949 c-15 -11 -32 -38 -38 -59 -10 -33 -9 -43 5 -65 18 -27 45
-32 64 -13 14 14 17 158 3 158 -4 0 -20 -9 -34 -21z"/>
</g>
</svg>
